<mxfile host="app.diagrams.net" modified="2024-07-10T08:09:38.149Z" agent="Mozilla/5.0 (Windows NT 10.0; Win64; x64) AppleWebKit/537.36 (KHTML, like Gecko) Chrome/116.0.0.0 Safari/537.36" etag="9XL6ClZ_KXb_wHU4nYRr" version="24.6.4" type="github">
  <diagram name="Page-1" id="e7e014a7-5840-1c2e-5031-d8a46d1fe8dd">
    <mxGraphModel dx="1290" dy="534" grid="1" gridSize="10" guides="1" tooltips="1" connect="1" arrows="1" fold="1" page="1" pageScale="1" pageWidth="1169" pageHeight="826" background="none" math="0" shadow="0">
      <root>
        <mxCell id="0" />
        <mxCell id="1" parent="0" />
        <mxCell id="2" value="用户" style="swimlane;whiteSpace=wrap" parent="1" vertex="1">
          <mxGeometry x="150" y="128" width="290.5" height="570" as="geometry" />
        </mxCell>
        <mxCell id="5" value="" style="ellipse;shape=startState;fillColor=#000000;strokeColor=#ff0000;" parent="2" vertex="1">
          <mxGeometry x="110.5" y="40" width="30" height="30" as="geometry" />
        </mxCell>
        <mxCell id="6" value="" style="edgeStyle=elbowEdgeStyle;elbow=horizontal;verticalAlign=bottom;endArrow=open;endSize=8;strokeColor=#FF0000;endFill=1;rounded=0" parent="2" source="5" target="nalj-dTuTIOCfNOfGDKo-48" edge="1">
          <mxGeometry x="100" y="40" as="geometry">
            <mxPoint x="115" y="110" as="targetPoint" />
          </mxGeometry>
        </mxCell>
        <mxCell id="7" value="搜索想要借阅的图书" style="" parent="2" vertex="1">
          <mxGeometry x="10" y="242" width="110" height="50" as="geometry" />
        </mxCell>
        <mxCell id="8" value="查看书籍详细信息" style="" parent="2" vertex="1">
          <mxGeometry x="60" y="372" width="110" height="50" as="geometry" />
        </mxCell>
        <mxCell id="9" value="" style="endArrow=open;strokeColor=#FF0000;endFill=1;rounded=0;exitX=1;exitY=1;exitDx=0;exitDy=0;" parent="2" source="7" edge="1">
          <mxGeometry relative="1" as="geometry">
            <mxPoint x="120" y="372" as="targetPoint" />
          </mxGeometry>
        </mxCell>
        <mxCell id="nalj-dTuTIOCfNOfGDKo-48" value="登录" style="html=1;whiteSpace=wrap;" vertex="1" parent="2">
          <mxGeometry x="70.5" y="92" width="110" height="50" as="geometry" />
        </mxCell>
        <mxCell id="nalj-dTuTIOCfNOfGDKo-85" value="归还图书" style="html=1;whiteSpace=wrap;" vertex="1" parent="2">
          <mxGeometry x="140.5" y="242" width="110" height="50" as="geometry" />
        </mxCell>
        <mxCell id="nalj-dTuTIOCfNOfGDKo-81" value="" style="shape=line;html=1;strokeWidth=6;strokeColor=#ff0000;" vertex="1" parent="2">
          <mxGeometry x="25.5" y="157" width="200" height="10" as="geometry" />
        </mxCell>
        <mxCell id="nalj-dTuTIOCfNOfGDKo-63" value="" style="endArrow=open;strokeColor=#FF0000;endFill=1;rounded=0;exitX=0;exitY=0.5;exitDx=0;exitDy=0;" edge="1" parent="2" source="nalj-dTuTIOCfNOfGDKo-81" target="7">
          <mxGeometry relative="1" as="geometry">
            <mxPoint x="130" y="222" as="sourcePoint" />
            <mxPoint x="127" y="182" as="targetPoint" />
            <Array as="points">
              <mxPoint x="127" y="162" />
            </Array>
          </mxGeometry>
        </mxCell>
        <mxCell id="nalj-dTuTIOCfNOfGDKo-86" value="" style="endArrow=open;strokeColor=#FF0000;endFill=1;rounded=0;exitX=0.636;exitY=0.9;exitDx=0;exitDy=0;exitPerimeter=0;entryX=0.5;entryY=0;entryDx=0;entryDy=0;" edge="1" parent="2" source="nalj-dTuTIOCfNOfGDKo-81" target="nalj-dTuTIOCfNOfGDKo-85">
          <mxGeometry relative="1" as="geometry">
            <mxPoint x="150" y="182" as="sourcePoint" />
            <mxPoint x="204" y="262" as="targetPoint" />
            <Array as="points" />
          </mxGeometry>
        </mxCell>
        <mxCell id="nalj-dTuTIOCfNOfGDKo-75" value="no" style="edgeStyle=orthogonalEdgeStyle;html=1;align=left;verticalAlign=bottom;endArrow=open;endSize=8;strokeColor=#ff0000;rounded=0;exitX=0.5;exitY=1;exitDx=0;exitDy=0;entryX=0;entryY=1;entryDx=0;entryDy=0;" edge="1" parent="2" target="7">
          <mxGeometry x="-0.2168" relative="1" as="geometry">
            <mxPoint x="10" y="262" as="targetPoint" />
            <mxPoint x="510" y="479" as="sourcePoint" />
            <Array as="points">
              <mxPoint x="510" y="516" />
              <mxPoint x="10" y="516" />
            </Array>
            <mxPoint as="offset" />
          </mxGeometry>
        </mxCell>
        <mxCell id="3" value="图书管理" style="swimlane;whiteSpace=wrap" parent="1" vertex="1">
          <mxGeometry x="440.5" y="128" width="280" height="570" as="geometry" />
        </mxCell>
        <mxCell id="18" value="图书借阅成功" style="" parent="3" vertex="1">
          <mxGeometry x="20" y="352" width="110" height="50" as="geometry" />
        </mxCell>
        <mxCell id="nalj-dTuTIOCfNOfGDKo-41" value="检查图书是否有库存" style="rhombus;whiteSpace=wrap;html=1;fontColor=#000000;fillColor=#ffffc0;strokeColor=#ff0000;" vertex="1" parent="3">
          <mxGeometry x="35" y="462" width="80" height="40" as="geometry" />
        </mxCell>
        <mxCell id="nalj-dTuTIOCfNOfGDKo-42" value="no" style="edgeStyle=orthogonalEdgeStyle;html=1;align=left;verticalAlign=bottom;endArrow=open;endSize=8;strokeColor=#ff0000;rounded=0;" edge="1" source="nalj-dTuTIOCfNOfGDKo-41" parent="3" target="18">
          <mxGeometry x="-1" y="197" relative="1" as="geometry">
            <mxPoint x="-39" y="360" as="targetPoint" />
            <Array as="points" />
            <mxPoint x="2" y="20" as="offset" />
          </mxGeometry>
        </mxCell>
        <mxCell id="nalj-dTuTIOCfNOfGDKo-68" value="yes" style="edgeLabel;html=1;align=center;verticalAlign=middle;resizable=0;points=[];" vertex="1" connectable="0" parent="nalj-dTuTIOCfNOfGDKo-42">
          <mxGeometry x="-0.4544" y="-1" relative="1" as="geometry">
            <mxPoint as="offset" />
          </mxGeometry>
        </mxCell>
        <mxCell id="nalj-dTuTIOCfNOfGDKo-58" value="" style="ellipse;html=1;shape=endState;fillColor=#000000;strokeColor=#ff0000;" vertex="1" parent="3">
          <mxGeometry x="230" y="152" width="30" height="30" as="geometry" />
        </mxCell>
        <mxCell id="nalj-dTuTIOCfNOfGDKo-55" value="检查用户合法性" style="rhombus;whiteSpace=wrap;html=1;fontColor=#000000;fillColor=#ffffc0;strokeColor=#ff0000;" vertex="1" parent="3">
          <mxGeometry x="20" y="142" width="80" height="40" as="geometry" />
        </mxCell>
        <mxCell id="nalj-dTuTIOCfNOfGDKo-56" value="no" style="edgeStyle=orthogonalEdgeStyle;html=1;align=left;verticalAlign=bottom;endArrow=open;endSize=8;strokeColor=#ff0000;rounded=0;exitX=1;exitY=0.5;exitDx=0;exitDy=0;" edge="1" source="nalj-dTuTIOCfNOfGDKo-55" parent="3" target="nalj-dTuTIOCfNOfGDKo-58">
          <mxGeometry x="-0.0476" y="-7" relative="1" as="geometry">
            <mxPoint x="-230.5" y="199.75" as="targetPoint" />
            <mxPoint x="159.5" y="142" as="sourcePoint" />
            <Array as="points">
              <mxPoint x="245" y="162" />
            </Array>
            <mxPoint x="-7" y="7" as="offset" />
          </mxGeometry>
        </mxCell>
        <mxCell id="nalj-dTuTIOCfNOfGDKo-74" value="检查是否有预约" style="rhombus;whiteSpace=wrap;html=1;fontColor=#000000;fillColor=#ffffc0;strokeColor=#ff0000;" vertex="1" parent="3">
          <mxGeometry x="189.5" y="462" width="80" height="40" as="geometry" />
        </mxCell>
        <mxCell id="nalj-dTuTIOCfNOfGDKo-76" value="yes" style="edgeStyle=orthogonalEdgeStyle;html=1;align=left;verticalAlign=top;endArrow=open;endSize=8;strokeColor=#ff0000;rounded=0;exitX=0.5;exitY=0;exitDx=0;exitDy=0;" edge="1" source="nalj-dTuTIOCfNOfGDKo-74" parent="3" target="18">
          <mxGeometry x="-0.1319" relative="1" as="geometry">
            <mxPoint x="229.5" y="582" as="targetPoint" />
            <mxPoint x="229.5" y="522" as="sourcePoint" />
            <mxPoint x="1" as="offset" />
          </mxGeometry>
        </mxCell>
        <mxCell id="nalj-dTuTIOCfNOfGDKo-73" value="" style="endArrow=open;strokeColor=#FF0000;endFill=1;rounded=0;exitX=1;exitY=0.5;exitDx=0;exitDy=0;entryX=0;entryY=0.5;entryDx=0;entryDy=0;" edge="1" parent="3" source="nalj-dTuTIOCfNOfGDKo-41" target="nalj-dTuTIOCfNOfGDKo-74">
          <mxGeometry relative="1" as="geometry">
            <mxPoint x="180" y="282" as="sourcePoint" />
            <mxPoint x="189.5" y="502" as="targetPoint" />
          </mxGeometry>
        </mxCell>
        <mxCell id="nalj-dTuTIOCfNOfGDKo-78" value="no" style="edgeLabel;html=1;align=center;verticalAlign=middle;resizable=0;points=[];" vertex="1" connectable="0" parent="nalj-dTuTIOCfNOfGDKo-73">
          <mxGeometry x="0.0336" y="2" relative="1" as="geometry">
            <mxPoint as="offset" />
          </mxGeometry>
        </mxCell>
        <mxCell id="nalj-dTuTIOCfNOfGDKo-88" value="检查是否逾期" style="rhombus;whiteSpace=wrap;html=1;fontColor=#000000;fillColor=#ffffc0;strokeColor=#ff0000;" vertex="1" parent="3">
          <mxGeometry x="35" y="247" width="80" height="40" as="geometry" />
        </mxCell>
        <mxCell id="nalj-dTuTIOCfNOfGDKo-91" value="还书成功" style="html=1;whiteSpace=wrap;" vertex="1" parent="3">
          <mxGeometry x="159.5" y="240" width="110" height="50" as="geometry" />
        </mxCell>
        <mxCell id="nalj-dTuTIOCfNOfGDKo-89" value="no" style="edgeStyle=orthogonalEdgeStyle;html=1;align=left;verticalAlign=bottom;endArrow=open;endSize=8;strokeColor=#ff0000;rounded=0;" edge="1" source="nalj-dTuTIOCfNOfGDKo-88" parent="3" target="nalj-dTuTIOCfNOfGDKo-91">
          <mxGeometry x="-1" relative="1" as="geometry">
            <mxPoint x="269.5" y="272" as="targetPoint" />
            <Array as="points">
              <mxPoint x="249.5" y="265" />
              <mxPoint x="249.5" y="265" />
            </Array>
          </mxGeometry>
        </mxCell>
        <mxCell id="nalj-dTuTIOCfNOfGDKo-95" value="扣除用户信用分" style="html=1;whiteSpace=wrap;" vertex="1" parent="3">
          <mxGeometry x="159.5" y="312" width="110" height="50" as="geometry" />
        </mxCell>
        <mxCell id="nalj-dTuTIOCfNOfGDKo-90" value="yes" style="edgeStyle=orthogonalEdgeStyle;html=1;align=left;verticalAlign=top;endArrow=open;endSize=8;strokeColor=#ff0000;rounded=0;entryX=0;entryY=0.5;entryDx=0;entryDy=0;" edge="1" source="nalj-dTuTIOCfNOfGDKo-88" parent="3" target="nalj-dTuTIOCfNOfGDKo-95">
          <mxGeometry x="-1" relative="1" as="geometry">
            <mxPoint x="-30.5" y="332" as="targetPoint" />
            <Array as="points">
              <mxPoint x="75" y="337" />
            </Array>
          </mxGeometry>
        </mxCell>
        <mxCell id="nalj-dTuTIOCfNOfGDKo-98" value="" style="endArrow=open;strokeColor=#FF0000;endFill=1;rounded=0;exitX=0.5;exitY=0;exitDx=0;exitDy=0;" edge="1" parent="3" source="nalj-dTuTIOCfNOfGDKo-95" target="nalj-dTuTIOCfNOfGDKo-91">
          <mxGeometry relative="1" as="geometry">
            <mxPoint x="-400" y="162" as="sourcePoint" />
            <mxPoint x="-400" y="210" as="targetPoint" />
          </mxGeometry>
        </mxCell>
        <mxCell id="4" value="数据库" style="swimlane;whiteSpace=wrap" parent="1" vertex="1">
          <mxGeometry x="730" y="128" width="280" height="570" as="geometry" />
        </mxCell>
        <mxCell id="38" value="" style="ellipse;shape=endState;fillColor=#000000;strokeColor=#ff0000" parent="4" vertex="1">
          <mxGeometry x="85.5" y="482" width="30" height="30" as="geometry" />
        </mxCell>
        <mxCell id="nalj-dTuTIOCfNOfGDKo-70" value="更新数据库信息" style="rounded=0;whiteSpace=wrap;html=1;" vertex="1" parent="4">
          <mxGeometry x="40.5" y="342" width="120" height="60" as="geometry" />
        </mxCell>
        <mxCell id="nalj-dTuTIOCfNOfGDKo-72" value="" style="endArrow=open;strokeColor=#FF0000;endFill=1;rounded=0;exitX=0.5;exitY=1;exitDx=0;exitDy=0;" edge="1" parent="4" source="nalj-dTuTIOCfNOfGDKo-70" target="38">
          <mxGeometry relative="1" as="geometry">
            <mxPoint x="-104" y="282" as="sourcePoint" />
            <mxPoint x="-104" y="330" as="targetPoint" />
            <Array as="points" />
          </mxGeometry>
        </mxCell>
        <mxCell id="11" value="" style="endArrow=open;strokeColor=#FF0000;endFill=1;rounded=0;entryX=0.5;entryY=0;entryDx=0;entryDy=0;" parent="1" source="8" target="nalj-dTuTIOCfNOfGDKo-41" edge="1">
          <mxGeometry relative="1" as="geometry">
            <mxPoint x="272.58333333333326" y="438" as="targetPoint" />
            <Array as="points">
              <mxPoint x="265" y="570" />
              <mxPoint x="265" y="580" />
              <mxPoint x="265" y="590" />
            </Array>
          </mxGeometry>
        </mxCell>
        <mxCell id="12" value="" style="edgeStyle=elbowEdgeStyle;elbow=horizontal;strokeColor=#FF0000;endArrow=open;endFill=1;rounded=0;exitX=0;exitY=0.5;exitDx=0;exitDy=0;" parent="1" source="nalj-dTuTIOCfNOfGDKo-41" target="7" edge="1">
          <mxGeometry width="100" height="100" relative="1" as="geometry">
            <mxPoint x="220.5" y="463" as="sourcePoint" />
            <mxPoint x="410" y="318" as="targetPoint" />
            <Array as="points">
              <mxPoint x="180" y="378" />
            </Array>
          </mxGeometry>
        </mxCell>
        <mxCell id="nalj-dTuTIOCfNOfGDKo-59" value="" style="endArrow=open;strokeColor=#FF0000;endFill=1;rounded=0;entryX=0.5;entryY=0;entryDx=0;entryDy=0;exitX=1;exitY=0.5;exitDx=0;exitDy=0;" edge="1" parent="1" source="nalj-dTuTIOCfNOfGDKo-48" target="nalj-dTuTIOCfNOfGDKo-55">
          <mxGeometry relative="1" as="geometry">
            <mxPoint x="276" y="270" as="sourcePoint" />
            <mxPoint x="276.5" y="300" as="targetPoint" />
            <Array as="points">
              <mxPoint x="501" y="245" />
            </Array>
          </mxGeometry>
        </mxCell>
        <mxCell id="nalj-dTuTIOCfNOfGDKo-71" value="" style="endArrow=open;strokeColor=#FF0000;endFill=1;rounded=0;entryX=0;entryY=0.5;entryDx=0;entryDy=0;exitX=0.905;exitY=0.4;exitDx=0;exitDy=0;exitPerimeter=0;" edge="1" parent="1" source="18" target="nalj-dTuTIOCfNOfGDKo-70">
          <mxGeometry relative="1" as="geometry">
            <mxPoint x="620.5" y="410" as="sourcePoint" />
            <mxPoint x="620.5" y="458" as="targetPoint" />
          </mxGeometry>
        </mxCell>
        <mxCell id="nalj-dTuTIOCfNOfGDKo-83" value="" style="endArrow=open;strokeColor=#FF0000;endFill=1;rounded=0;exitX=0;exitY=0.5;exitDx=0;exitDy=0;" edge="1" parent="1" source="nalj-dTuTIOCfNOfGDKo-55" target="nalj-dTuTIOCfNOfGDKo-81">
          <mxGeometry relative="1" as="geometry">
            <mxPoint x="461" y="290" as="sourcePoint" />
            <mxPoint x="257" y="330" as="targetPoint" />
            <Array as="points" />
          </mxGeometry>
        </mxCell>
        <mxCell id="nalj-dTuTIOCfNOfGDKo-84" value="yes" style="edgeLabel;html=1;align=center;verticalAlign=middle;resizable=0;points=[];" vertex="1" connectable="0" parent="nalj-dTuTIOCfNOfGDKo-83">
          <mxGeometry x="-0.2159" relative="1" as="geometry">
            <mxPoint as="offset" />
          </mxGeometry>
        </mxCell>
        <mxCell id="nalj-dTuTIOCfNOfGDKo-93" value="" style="endArrow=open;strokeColor=#FF0000;endFill=1;rounded=0;entryX=0.5;entryY=0;entryDx=0;entryDy=0;exitX=1;exitY=0.5;exitDx=0;exitDy=0;" edge="1" parent="1" source="nalj-dTuTIOCfNOfGDKo-91" target="nalj-dTuTIOCfNOfGDKo-70">
          <mxGeometry relative="1" as="geometry">
            <mxPoint x="710" y="388" as="sourcePoint" />
            <mxPoint x="880" y="413" as="targetPoint" />
            <Array as="points">
              <mxPoint x="830" y="393" />
            </Array>
          </mxGeometry>
        </mxCell>
        <mxCell id="nalj-dTuTIOCfNOfGDKo-94" value="" style="edgeStyle=elbowEdgeStyle;elbow=horizontal;verticalAlign=bottom;endArrow=open;endSize=8;strokeColor=#FF0000;endFill=1;rounded=0;exitX=1;exitY=0.5;exitDx=0;exitDy=0;entryX=0;entryY=0.5;entryDx=0;entryDy=0;" edge="1" parent="1" source="nalj-dTuTIOCfNOfGDKo-85" target="nalj-dTuTIOCfNOfGDKo-88">
          <mxGeometry x="-205" y="-143" as="geometry">
            <mxPoint x="475.5" y="385" as="targetPoint" />
            <mxPoint x="410" y="380" as="sourcePoint" />
            <Array as="points" />
          </mxGeometry>
        </mxCell>
      </root>
    </mxGraphModel>
  </diagram>
</mxfile>
